<svg width="100" height="100" viewBox="0 0 100 100" xmlns="http://www.w3.org/2000/svg">
    <defs>
        <radialGradient id="aetherGradient" cx="50%" cy="50%" r="50%">
            <stop offset="0%" stop-color="#00eaff"/>
            <stop offset="100%" stop-color="#6f00ff"/>
        </radialGradient>
        <linearGradient id="gridLines" x1="0%" y1="0%" x2="100%" y2="100%">
            <stop offset="0%" stop-color="#ffffff33"/>
            <stop offset="100%" stop-color="#ffffff00"/>
        </linearGradient>
    </defs>

    <!-- Dark background -->
    <rect x="0" y="0" width="100" height="100" fill="#0b0b2b"/>

    <!-- Swirling outer ring -->
    <circle cx="50" cy="50" r="45" fill="none" stroke="url(#aetherGradient)" stroke-width="3"/>

    <!-- Concentric energy rings -->
    <circle cx="50" cy="50" r="35" fill="none" stroke="url(#aetherGradient)" stroke-width="1" opacity="0.3"/>
    <circle cx="50" cy="50" r="25" fill="none" stroke="url(#aetherGradient)" stroke-width="1" opacity="0.2"/>
    <circle cx="50" cy="50" r="15" fill="none" stroke="url(#aetherGradient)" stroke-width="1" opacity="0.15"/>

    <!-- Radionic grid pattern -->
    <g stroke="url(#gridLines)" stroke-width="0.5">
        <line x1="20" y1="50" x2="80" y2="50"/>
        <line x1="50" y1="20" x2="50" y2="80"/>
        <line x1="30" y1="30" x2="70" y2="70"/>
        <line x1="30" y1="70" x2="70" y2="30"/>
    </g>

    <!-- Aether spiral -->
    <path d="M50 20
           C65 25, 75 45, 60 60
           C45 75, 35 55, 40 40
           C45 25, 50 20, 50 20 Z"
          fill="url(#aetherGradient)"
          opacity="0.5"/>

    <!-- Central dot -->
    <circle cx="50" cy="50" r="3" fill="#ffffff"/>
</svg>
